<?xml version="1.0" encoding="UTF-8" standalone="no"?>
<svg
   xmlns:dc="http://purl.org/dc/elements/1.1/"
   xmlns:cc="http://creativecommons.org/ns#"
   xmlns:rdf="http://www.w3.org/1999/02/22-rdf-syntax-ns#"
   xmlns:svg="http://www.w3.org/2000/svg"
   xmlns="http://www.w3.org/2000/svg"
   version="1.1"
   id="svg2"
   viewBox="0 0 480.84677 485.93464"
   height="137.14156mm"
   width="135.70564mm">
  <defs
     id="defs4" />
  <metadata
     id="metadata7">
    <rdf:RDF>
      <cc:Work
         rdf:about="">
        <dc:format>image/svg+xml</dc:format>
        <dc:type
           rdf:resource="http://purl.org/dc/dcmitype/StillImage" />
        <dc:title></dc:title>
      </cc:Work>
    </rdf:RDF>
  </metadata>
  <g
     transform="translate(-31.646462,13.183133)"
     id="g4147">
    <path
       id="path4153"
       d="m 266.38533,471.06687 c -0.86411,-0.9625 -2.37449,-3.775 -3.35641,-6.25 -2.52299,-6.35943 -26.01762,-37.15737 -39.6689,-52 -21.4994,-23.37566 -45.16983,-43.52957 -72.21356,-61.48539 -31.05803,-20.62112 -62.364968,-37.59518 -90.999998,-49.33856 -16.86014,-6.91443 -28.5,-12.3617 -28.5,-13.33755 0,-0.45707 6.69331,-10.62022 14.87403,-22.58477 17.4296,-25.49134 20.38629,-30.76441 30.69762,-54.74723 13.95856,-32.46581 22.60397,-57.99607 30.817888,-91.0065 6.30197,-25.32661 9.35299,-42.43712 15.7361,-88.25 3.84539,-27.59918 6.72276,-45.250003 7.37648,-45.250003 0.58948,0 8.64101,2.235963 17.89227,4.968803 28.32777,8.36808001 40.97534,10.47871 81.60561,13.61839 16.81278,1.2992 28.69434,1.53581 54.5,1.08532 53.04169,-0.92595 80.87613,-4.7129 112.36502,-15.28755 7.35076,-2.46854 13.52291,-4.330364 13.71589,-4.137383 0.19298,0.19298 2.62216,13.37872301 5.39817,29.301643 14.47382,83.02048 29.87805,145.95579 43.57159,178.01551 8.65547,20.26445 31.86673,61.76926 47.68471,85.26659 2.71442,4.03222 4.78441,7.46911 4.59997,7.63753 -0.18444,0.16842 -8.21035,3.77232 -17.83535,8.00869 -80.36036,35.36993 -130.29669,67.49945 -173.5583,111.66909 -16.15377,16.49282 -21.88698,23.79359 -37.87745,48.23375 -11.89487,18.18036 -13.44134,19.63898 -16.82538,15.86962 z m 12.91126,-61.25 c 5.34207,-24.43275 17.41267,-56.15081 33.96343,-89.24614 18.72152,-37.43603 41.18586,-73.88128 73.7546,-119.65649 10.6498,-14.96825 13.72093,-20.34162 12.388,-21.67454 -0.26622,-0.26622 -7.40776,0.62935 -15.8701,1.99015 -29.8133,4.79419 -43.09798,5.9364 -69.88606,6.00874 -24.35858,0.0658 -38.82705,-0.99099 -48.37112,-3.53299 l -3.87111,-1.03104 0.68029,-6.17885 c 4.85153,-44.06485 30.43081,-95.88706 67.41789,-136.5849 4.04577,-4.45167 6.99127,-8.09394 6.54557,-8.09394 -0.44571,0 -5.55588,1.34123 -11.35595,2.98051 -33.47311,9.46057 -71.98939,10.44466 -99.21878,2.53505 -4.77027,-1.38567 -9.28754,-2.75514 -10.03837,-3.04326 -1.12906,-0.43326 -1.29401,2.27174 -0.95377,15.64097 0.46271,18.1816 -0.64073,28.5385 -4.88882,45.88673 -11.10109,45.33427 -39.31265,97.92718 -81.62453,152.16715 -4.57672,5.86693 -8.3213,10.88952 -8.3213,11.16131 0,0.27179 2.8125,-0.166 6.25,-0.97287 38.43869,-9.02252 58.38066,-12.08738 84.25,-12.94827 27.3131,-0.90894 49.14987,0.94939 66.83356,5.6876 3.01843,0.80876 3.68953,1.3863 3.15616,2.71613 -4.38981,10.94498 -10.05545,43.6208 -11.57125,66.7357 -2.11857,32.30662 0.65275,83.6242 5.77583,106.95325 0.64082,2.91812 0.68313,2.87718 1.55012,-1.5 0.49022,-2.475 2.02279,-9.675 3.40571,-16 z"
       style="fill-opacity:1" />
  </g>
</svg>
